# xmcd
#
# Track frame offsets:
#	182
#	24450
#	41872
#	64540
#
# Disc length: 1157 seconds
#
# Revision: 0
# Processed by: cddbd v1.4PL0 Copyright (c) Steve Scherf et al.
# Submitted via: EasyCDDAExtractor 5.0.0.0
#
DISCID=2d048304
DTITLE=Fortran 5 - Heart On The Line
DYEAR=1900
DGENRE=
TTITLE0=Heart On The Line(Voodoo Child Mix)
TTITLE1=Heart On The Line(Single Mix)
TTITLE2=Heart On The Line(HP Saucey Mix)
TTITLE3=Heart On The Line(Bassline Mix)
EXTD=
EXTT0=
EXTT1=
EXTT2=
EXTT3=
PLAYORDER=
